<svg viewBox="0 0 960 640" xmlns="http://www.w3.org/2000/svg" role="img" aria-labelledby="title desc">
  <title id="title">Jukes Meal Placeholder</title>
  <desc id="desc">Illustrated Ghanaian rice and salad meal bowl.</desc>
  <rect width="960" height="640" fill="#f8f3e8"/>
  <rect x="0" y="0" width="960" height="210" fill="#123326"/>
  <circle cx="760" cy="150" r="74" fill="#d8322a"/>
  <circle cx="760" cy="150" r="42" fill="#f4b63f"/>
  <path d="M164 206c86-85 203-125 340-96 124 26 215 94 273 185-106 53-214 81-324 81-101 0-197-30-289-170Z" fill="#2f9b55"/>
  <ellipse cx="480" cy="363" rx="300" ry="174" fill="#ffffff"/>
  <ellipse cx="480" cy="340" rx="264" ry="138" fill="#f4b63f"/>
  <path d="M284 333c55-61 124-91 207-91 72 0 135 24 189 72-63 42-133 63-210 63-65 0-127-15-186-44Z" fill="#f7d66b"/>
  <path d="M301 392c54 53 114 79 180 79 72 0 137-31 197-93 6 70-79 122-198 122-108 0-184-42-179-108Z" fill="#d8322a"/>
  <path d="M203 189c51-79 118-117 201-115-22 84-89 122-201 115Z" fill="#57bd68"/>
  <text x="480" y="580" text-anchor="middle" font-family="Montserrat, Arial, sans-serif" font-size="48" font-weight="800" fill="#102a1f">Fresh meals from Jukes</text>
</svg>
